<svg width="224" height="64" viewBox="0 0 224 64" fill="none" xmlns="http://www.w3.org/2000/svg">
<path fill-rule="evenodd" clip-rule="evenodd" d="M134.062 23.7023C134.715 23.72 135.381 23.5701 136.041 23.4216C136.288 23.366 136.534 23.3107 136.778 23.2643C136.8 23.8324 137.232 23.7333 137.654 23.6368C137.702 23.6258 137.75 23.6149 137.797 23.6049V15.2114C137.488 15.2297 137.219 15.2479 136.951 15.2662L136.681 15.2844V18.3742C134.814 17.4984 133.455 17.6687 132.558 18.8365C131.709 19.9313 131.636 21.8046 132.534 22.7778C132.922 23.2157 133.528 23.6779 134.062 23.7023ZM134.959 18.6418C136.075 18.6418 136.681 19.396 136.681 20.8314C136.681 22.2425 136.075 22.9481 134.911 22.9481C133.795 22.9237 133.067 22.0722 133.092 20.8071C133.092 19.542 133.892 18.6418 134.959 18.6418ZM68.1884 15.2354C64.4049 15.3327 60.5243 19.9552 61.4459 23.2396C65.0112 23.7748 68.916 19.201 68.1884 15.2354ZM75.344 26.5487C75.3227 26.5167 75.3014 26.4834 75.2798 26.4498C75.2032 26.3303 75.1233 26.2057 75.0287 26.1108C72.5306 23.2886 69.0866 22.3641 65.5698 23.7995C63.4355 24.6754 61.4224 24.724 59.3124 23.8725C58.3422 23.4832 57.2751 23.2156 56.2322 23.167C52.5214 22.9723 48.7378 26.0865 47.7434 30.0278C47.1371 32.339 47.1856 34.6746 47.6949 37.0102C48.5923 41.1705 50.4356 44.8198 53.5158 47.788C54.971 49.1991 56.7657 49.6127 58.6333 48.7125C61.2527 47.4474 63.775 47.423 66.3944 48.7125C67.9467 49.491 69.5231 49.272 70.8813 48.1529C73.4522 46.0119 75.0287 43.1898 76.3869 40.1973C70.2992 37.5211 70.1052 29.5655 75.344 26.5487ZM103.428 31.8274C102.712 31.9813 102.045 32.3513 101.383 32.7182C101.102 32.8734 100.823 33.0281 100.542 33.1655C100.494 32.8493 100.421 32.4357 100.348 32.0221H98.1895V48.9794H100.736V43.1648C100.878 43.2503 100.979 43.3191 101.062 43.3761C101.121 43.4164 101.171 43.4508 101.221 43.4811C103.622 45.2327 107.018 44.6245 108.643 42.1186C109.928 40.148 110.025 37.9827 109.516 35.7687C108.837 32.9222 106.29 31.2192 103.428 31.8274ZM106.557 40.8049C105.926 42.0943 104.495 42.6295 103.113 42.2889C101.827 41.997 100.857 40.8292 100.76 39.4424C100.744 39.2031 100.749 38.9534 100.755 38.6863C100.757 38.5461 100.76 38.4011 100.76 38.2503C100.712 37.1312 100.76 35.9877 101.536 35.0145C102.846 33.3358 105.344 33.3845 106.46 35.2092C107.527 37.0339 107.479 38.9558 106.557 40.8049ZM114.454 32.789C115.049 32.4373 115.643 32.0868 116.284 31.9008C118.66 31.1953 121.062 32.2414 122.08 34.504C123.317 37.1316 123.269 39.7834 121.668 42.2407C120.116 44.6492 116.841 45.2088 114.465 43.6031C114.381 43.5336 114.298 43.48 114.183 43.4059C114.097 43.3504 113.993 43.2834 113.858 43.1895V49.0771H111.772C111.214 49.0771 111.246 48.7156 111.275 48.3842V48.3842L111.275 48.3841C111.281 48.3123 111.287 48.2419 111.287 48.177V38.0074V32.0468H113.47C113.489 32.1587 113.507 32.2689 113.526 32.3768C113.579 32.6913 113.628 32.9853 113.664 33.2389C113.931 33.0979 114.192 32.9434 114.454 32.7891L114.454 32.789ZM116.453 42.338C118.03 42.5813 119.437 41.7298 119.97 40.1727C120.431 38.8103 120.455 37.3992 119.946 36.0124C119.388 34.4554 118.127 33.6282 116.623 33.8471C115.192 34.0661 114.004 35.3799 113.907 36.9126C113.891 37.2046 113.896 37.4965 113.901 37.7885C113.904 37.9344 113.907 38.0804 113.907 38.2264V39.1752C113.931 40.8296 114.95 42.0947 116.453 42.338ZM92.0543 29.152C91.44 27.351 91.4241 27.3504 89.6755 27.2841L89.5319 27.2786C88.7315 27.2543 88.4647 27.5706 88.2222 28.2518C86.9617 32.0208 85.6769 35.7898 84.3922 39.5588L84.3921 39.5591L84.392 39.5594L84.3919 39.5597L84.3918 39.56L84.3917 39.5603L84.3916 39.5606L84.3915 39.5609L84.3914 39.5612L84.3913 39.5615L84.3911 39.5618L84.391 39.5621L84.3909 39.5624L84.3908 39.5627L84.3907 39.563L84.3906 39.5633L84.3905 39.5636L84.3904 39.5639L84.3903 39.5642L84.3902 39.5645L84.3901 39.5648C83.8808 41.0732 83.3715 42.5816 82.8379 44.2117C83.074 44.2117 83.2954 44.2058 83.5073 44.2002L83.5074 44.2002H83.5075C83.905 44.1896 84.2688 44.1799 84.6327 44.2117C85.2875 44.2847 85.5785 44.0414 85.7483 43.4088C86.1121 42.1437 86.5244 40.8786 86.9853 39.6621C87.0823 39.3702 87.5188 39.0539 87.8099 39.0539C89.2166 38.9809 90.6233 39.0052 92.03 39.0539C92.321 39.0782 92.7576 39.3945 92.8546 39.6621C93.168 40.4556 93.4355 41.2582 93.7023 42.0587L93.7023 42.0589L93.7024 42.0591C93.8691 42.5594 94.0356 43.0589 94.2128 43.5548C94.3098 43.7981 94.6251 44.1144 94.8677 44.1387C95.3669 44.1905 95.8783 44.181 96.4107 44.1711C96.6283 44.1671 96.8495 44.163 97.0747 44.163C97.0169 43.9772 96.97 43.808 96.9263 43.6502C96.8785 43.4773 96.8344 43.3181 96.7837 43.1655C95.2559 38.5436 93.6554 33.8486 92.0548 29.1537L92.0546 29.1531L92.0543 29.152ZM87.8341 36.8886L87.9001 36.6855C88.5801 34.5922 89.2394 32.5625 89.9442 30.4414C90.2564 31.3915 90.5642 32.3147 90.8694 33.2303L90.8698 33.2312L90.8699 33.2317L90.8701 33.2322C91.2759 34.4494 91.6772 35.6532 92.0785 36.8886H87.8341ZM134.16 34.5164C134.797 34.8145 135.433 35.1125 136.052 35.4531C137.483 36.2316 138.283 37.4237 138.356 39.1024C138.55 41.9003 136.828 43.9683 133.893 44.4062C132.195 44.6495 130.546 44.4548 128.921 43.8223C128.194 43.5303 127.927 43.1654 128.291 42.4112C128.401 42.1731 128.471 41.9247 128.539 41.6794L128.539 41.6793L128.54 41.6793L128.54 41.6792L128.54 41.6791L128.54 41.679L128.54 41.6789L128.54 41.6787L128.54 41.6786L128.54 41.6785L128.54 41.6784L128.54 41.6783L128.54 41.6782L128.54 41.6781L128.54 41.6781L128.54 41.678L128.54 41.6778C128.576 41.5477 128.612 41.4184 128.654 41.2921C129.002 41.3952 129.342 41.5086 129.678 41.6206L129.678 41.6206C130.373 41.8521 131.048 42.0775 131.735 42.1922C132.511 42.3139 133.36 42.2166 134.136 42.0219C135.082 41.7786 135.664 41.0731 135.809 40.0756C135.931 39.0781 135.664 38.2023 134.839 37.667C134.385 37.3632 133.893 37.1353 133.398 36.9062C133.101 36.7685 132.802 36.6303 132.511 36.4749C132.265 36.3377 132.013 36.2082 131.761 36.0789C131.12 35.7495 130.48 35.4207 129.94 34.9665C127.66 33.0202 127.951 29.5898 130.473 27.9597C132.414 26.719 135.858 26.719 137.774 28.0327C137.556 28.6653 137.337 29.2978 137.192 29.7601C136.769 29.7089 136.357 29.649 135.953 29.5901L135.953 29.5901C135.012 29.4531 134.113 29.3222 133.214 29.3222C132.05 29.3222 131.25 30.125 131.031 31.0739C130.789 32.0714 131.201 32.9715 132.268 33.5798C132.887 33.9203 133.523 34.2184 134.16 34.5164L134.16 34.5164ZM155.09 32.3146C152.883 31.2684 150.676 31.4387 148.687 32.8985C145.971 34.9178 145.437 39.589 147.669 42.3138C148.299 43.068 149.197 43.7492 150.118 44.0898C154.314 45.6712 158.243 42.7031 158.268 37.2534C158.243 35.5747 157.443 33.458 155.09 32.3146ZM154.654 41.1704C153.368 43.0437 150.798 42.8734 149.658 40.9027C148.59 39.0537 148.615 37.0831 149.682 35.2584C150.919 33.1174 153.878 33.2391 155.018 35.4774C155.296 36.035 155.449 36.6676 155.621 37.375C155.689 37.6552 155.76 37.9472 155.842 38.2509C155.731 38.5343 155.631 38.836 155.529 39.1433L155.529 39.1435L155.529 39.1436L155.528 39.1437C155.298 39.8389 155.057 40.5631 154.654 41.1704ZM176.698 38.5011C176.496 38.7131 176.072 38.7131 175.22 38.7131H168.647C168.405 40.6594 169.763 42.2408 171.849 42.3138C172.742 42.3311 173.636 42.2139 174.564 42.0922C174.946 42.0422 175.334 41.9914 175.729 41.9489C176.36 43.7249 176.311 43.7979 174.444 44.2115C173.983 44.3088 173.522 44.3818 173.061 44.4305C166.61 45.0387 165.131 39.662 166.416 35.6963C167.265 33.1174 169.229 31.682 171.825 31.7064C174.711 31.7064 176.675 33.7743 176.845 36.9371V37.0344C176.881 37.8709 176.899 38.2906 176.698 38.5011ZM171.97 33.6527C170.224 33.4824 169.035 34.5285 168.647 36.6208H174.298C174.25 34.8691 173.377 33.7743 171.97 33.6527ZM143.035 29.0303C142.752 29.1302 142.466 29.2059 142.19 29.2787C141.594 29.4364 141.047 29.581 140.682 29.9304C140.432 30.1813 140.434 30.6965 140.437 31.2233C140.437 31.4629 140.438 31.7049 140.416 31.9254L139.862 31.9498C139.496 31.966 139.13 31.9822 138.742 31.9984V33.9691C139.324 33.9934 139.834 34.0177 140.513 34.0664V35.2828C140.52 35.8947 140.521 36.5067 140.521 37.1179V37.1181V37.1183V37.1186V37.1188V37.119V37.1192V37.1194V37.1196V37.1199V37.1201V37.1203V37.1205V37.1207V37.1209V37.1212C140.523 38.5503 140.525 39.9758 140.61 41.3894C140.731 43.5061 141.992 44.5522 144.078 44.4792C145.97 44.4306 146.091 44.2603 145.873 42.4113C145.873 42.3471 145.817 42.2642 145.77 42.1955L145.751 42.168C145.606 42.168 145.485 42.168 145.363 42.1923C143.593 42.4599 143.059 42.0463 143.035 40.246C143.019 39.3538 143.024 38.4508 143.03 37.5514V37.5512V37.5511V37.5509V37.5508V37.5506V37.5504V37.5503V37.5501V37.55V37.5498V37.5496V37.5495V37.5493V37.5492V37.549L143.03 37.5463C143.032 37.0985 143.035 36.6516 143.035 36.2073V34.0177H145.994V31.9498H143.035V29.0303ZM163.845 32.0227C165.47 31.2441 166.124 31.6577 166.1 33.3851C166.1 33.5552 166.076 33.7254 166.054 33.8872C166.044 33.9568 166.035 34.0248 166.027 34.0906C163.578 34.3339 162.608 35.0638 162.414 36.9615C162.365 37.521 162.365 38.1049 162.365 38.6645V44.1872H159.818V32.047H161.953L161.972 32.2126L161.972 32.2134C162.015 32.578 162.059 32.9632 162.123 33.3851C162.313 33.221 162.494 33.0638 162.668 32.9121L162.669 32.9114L162.671 32.9099C162.961 32.6575 163.233 32.4205 163.505 32.193C163.602 32.12 163.723 32.0713 163.845 32.0227ZM90.1629 19.4691C90.1872 21.2452 89.2898 22.6806 87.7618 23.2645C86.2096 23.8727 84.5846 23.8727 82.8868 23.6051V15.7711C84.5846 15.5522 86.2581 15.4062 87.8831 16.0144C89.3626 16.5496 90.1387 17.8391 90.1629 19.4691ZM84.6574 16.501C84.4148 16.574 84.051 16.8903 84.051 17.0849C84.0147 18.4873 84.0192 19.9033 84.0237 21.3432L84.0237 21.346C84.0252 21.8286 84.0268 22.3139 84.0268 22.8022C84.2981 22.8022 84.557 22.8122 84.8059 22.8217C85.3358 22.8421 85.8203 22.8607 86.2824 22.7779C88.1256 22.4616 89.023 21.1965 88.9017 19.1772C88.8047 17.5958 87.7618 16.6226 85.9671 16.4767C85.907 16.4733 85.8465 16.4695 85.7857 16.4657C85.4046 16.4417 85.0129 16.4171 84.6574 16.501ZM101.271 22.9968C101.149 23.2888 100.737 23.6051 100.446 23.6294C100.228 23.6537 99.8397 23.2888 99.6942 22.9968C99.3179 21.9589 98.9721 20.9007 98.6239 19.8352L98.6237 19.8349L98.6237 19.8347L98.6236 19.8346L98.6236 19.8344L98.6235 19.8342L98.6235 19.8341C98.4331 19.2516 98.242 18.667 98.0449 18.0824C98.8453 17.7661 99.2576 17.9364 99.4516 18.7636C99.6389 19.5152 99.8664 20.2567 100.115 21.0659C100.252 21.5141 100.396 21.983 100.543 22.4859C100.69 22.0656 100.826 21.6675 100.957 21.2851L100.958 21.2845L100.958 21.2842C101.282 20.3391 101.573 19.4905 101.901 18.6419C102.023 18.35 102.386 17.9607 102.605 17.9851C102.92 18.0094 103.284 18.35 103.405 18.6419C103.719 19.42 103.987 20.2318 104.28 21.1157L104.28 21.116L104.28 21.1161L104.28 21.1162L104.28 21.1163C104.417 21.5313 104.56 21.9622 104.715 22.413C105.127 21.0505 105.491 19.8828 105.855 18.715L105.855 18.7149C106.115 17.8616 106.121 17.8628 107.153 18.0434L107.237 18.0581L107.067 18.545C106.496 20.175 105.939 21.7684 105.321 23.3618C105.248 23.5321 104.86 23.7024 104.642 23.6537C104.399 23.6051 104.108 23.3618 104.011 23.1428C103.594 22.0633 103.217 20.9639 102.789 19.718L102.653 19.3232C102.463 19.8237 102.289 20.3039 102.121 20.7687L102.121 20.7687L102.121 20.7688C101.84 21.5465 101.574 22.2812 101.271 22.9968ZM165.374 20.5879C165.374 20.2473 165.399 19.8824 165.544 19.5904C165.908 18.8362 166.563 18.5929 167.339 18.7389C168.115 18.8849 168.406 19.4688 168.406 20.1986C168.422 20.961 168.417 21.7233 168.411 22.4856C168.409 22.8667 168.406 23.2479 168.406 23.629H169.594V20.5879C169.594 19.5904 169.497 18.5929 168.503 18.082C167.484 17.5468 166.514 17.7901 165.617 18.4713C165.597 18.4909 165.531 18.4789 165.43 18.4609C165.405 18.4565 165.379 18.4517 165.35 18.447V15.2842H164.234V23.629H165.374C165.35 22.5829 165.35 21.5854 165.374 20.5879ZM118.348 20.7587C118.372 18.9827 119.658 17.7905 121.525 17.7905C123.368 17.8149 124.581 19.007 124.581 20.7587C124.581 22.5833 123.247 23.8241 121.355 23.7998C119.561 23.7755 118.324 22.5347 118.348 20.7587ZM119.536 20.8073C119.536 22.0724 120.313 22.9726 121.38 22.9969C122.52 23.0213 123.32 22.1211 123.32 20.8317C123.344 19.5179 122.568 18.5934 121.452 18.5934C120.337 18.5934 119.536 19.5179 119.536 20.8073ZM145.123 23.8241C147.014 23.8241 148.324 22.5834 148.3 20.7343C148.276 18.9583 147.063 17.7905 145.22 17.7905C143.328 17.7905 142.042 19.0556 142.067 20.9046C142.115 22.6077 143.376 23.8241 145.123 23.8241ZM145.244 18.5934C146.335 18.6177 147.16 19.6152 147.111 20.856C147.063 22.0724 146.263 22.9726 145.171 22.9726C144.031 22.9726 143.255 22.0724 143.279 20.7587C143.304 19.4692 144.104 18.5691 145.244 18.5934ZM91.18 20.8073C91.18 19.007 92.4655 17.7905 94.333 17.7905C96.1763 17.7905 97.4132 18.9827 97.4132 20.7343C97.4132 22.5834 96.1278 23.7998 94.2117 23.7998C92.417 23.7998 91.1558 22.5834 91.18 20.8073ZM92.3927 20.8317C92.417 22.0968 93.1688 22.9726 94.2602 22.9969C95.3759 23.0213 96.2005 22.0968 96.2005 20.8073C96.2005 19.5179 95.4002 18.5934 94.2845 18.5934C93.1688 18.5934 92.3927 19.5179 92.3927 20.8317ZM172.48 23.4342C173.547 23.9694 174.662 23.8964 175.778 23.5802C175.903 23.5488 175.988 23.3861 176.104 23.1637C176.168 23.0409 176.241 22.9 176.336 22.753C173.183 23.1422 172.334 22.753 172.237 21.0013H174.371H176.578C176.772 19.3469 176.093 18.1791 174.808 17.8628C173.231 17.4736 171.776 18.2034 171.243 19.6875C170.66 21.2202 171.17 22.8016 172.48 23.4342ZM173.813 18.5684C174.759 18.5197 175.269 19.0063 175.414 20.1984H172.285C172.358 19.1766 172.892 18.617 173.813 18.5684ZM152.591 18.6656C151.597 18.6656 150.966 19.3712 150.942 20.539C150.926 21.1967 150.931 21.8544 150.936 22.54V22.5403V22.5407V22.541V22.5414V22.5426V22.5438V22.5451V22.5463C150.939 22.8985 150.942 23.258 150.942 23.6287H149.826V17.8628C150.014 17.9403 150.192 18.0078 150.373 18.0767C150.59 18.159 150.812 18.2434 151.063 18.3493C151.193 18.3101 151.341 18.2569 151.502 18.199C151.939 18.0414 152.471 17.8497 153.003 17.8141C154.143 17.7411 154.992 18.398 155.089 19.5415C155.173 20.4646 155.153 21.3878 155.132 22.327V22.3272C155.123 22.7492 155.113 23.1745 155.113 23.6044H153.998C153.998 23.2551 154 22.9058 154.003 22.5574V22.5572V22.5569V22.5567V22.5565C154.009 21.8617 154.014 21.1706 153.998 20.4903C153.974 19.2495 153.513 18.6656 152.591 18.6656ZM130.447 23.7266C130.447 23.2155 130.45 22.7276 130.453 22.2557C130.458 21.3573 130.463 20.5174 130.447 19.6879C130.423 18.7148 129.841 18.0336 128.919 17.9362C128.143 17.8389 127.318 17.9606 126.518 18.0822C125.984 18.1552 125.887 18.5201 126.275 18.9094C128.434 18.3255 129.161 18.5688 129.259 19.9069C128.956 19.9763 128.65 20.0333 128.346 20.09C127.796 20.1925 127.251 20.2942 126.736 20.4665C125.814 20.7827 125.378 21.6343 125.548 22.4614C125.693 23.24 126.421 23.8482 127.367 23.7752C127.839 23.7414 128.312 23.6015 128.727 23.4785C128.909 23.4248 129.079 23.3743 129.234 23.3373L129.432 23.3998C129.808 23.5188 130.136 23.6227 130.447 23.7266ZM127.779 22.9724C127.415 22.948 126.857 22.5831 126.785 22.2668C126.712 21.9505 127.003 21.2937 127.318 21.1477C127.706 20.9445 128.153 20.8709 128.61 20.7958C128.81 20.7629 129.011 20.7298 129.21 20.6854C129.671 22.2182 128.87 23.021 127.779 22.9724ZM112.695 23.6291V20.6367C112.671 19.2742 112.186 18.6417 111.216 18.6903C110.197 18.7147 109.615 19.4445 109.615 20.7097V23.6535H108.523V17.8388C108.742 17.9361 108.936 18.0274 109.13 18.1186C109.324 18.2098 109.518 18.3011 109.736 18.3984C109.883 18.3518 110.045 18.2853 110.219 18.214C110.589 18.0621 111.012 17.8885 111.458 17.8388C112.768 17.6929 113.714 18.4957 113.835 19.8095C113.908 20.4854 113.899 21.175 113.89 21.8577V21.8583V21.8588C113.886 22.085 113.883 22.3104 113.883 22.5343V23.6291H112.695ZM160.112 22.145C160.16 23.3858 160.985 23.994 162.197 23.7994C162.804 23.7021 162.925 23.4345 162.634 22.8992C162.59 22.8992 162.547 22.8996 162.503 22.8999L162.503 22.8999C161.888 22.9044 161.276 22.909 161.276 22.0234C161.26 21.3191 161.265 20.6254 161.27 19.8936V19.893C161.273 19.5127 161.276 19.1222 161.276 18.7146C161.424 18.7146 161.559 18.7192 161.684 18.7234C161.968 18.733 162.204 18.741 162.44 18.6903C162.549 18.6746 162.639 18.5883 162.734 18.4963C162.786 18.4455 162.84 18.393 162.901 18.3497C162.86 18.3086 162.819 18.2597 162.777 18.2102L162.777 18.2101C162.671 18.0839 162.562 17.9536 162.44 17.9361C162.197 17.8839 161.93 17.8939 161.664 17.9039C161.558 17.9078 161.452 17.9118 161.349 17.9118C161.3 17.4009 161.252 17.0116 161.203 16.671C160.184 16.5007 160.063 17.1576 160.015 17.6928C159.651 17.9361 159.384 18.1064 159.117 18.2524C159.212 18.3304 159.307 18.4115 159.411 18.5002L159.411 18.5003L159.411 18.5003C159.599 18.6603 159.815 18.8448 160.112 19.0796C160.112 19.3569 160.107 19.6561 160.102 19.9704C160.091 20.6487 160.078 21.3969 160.112 22.145ZM115.799 15.2843H116.842V23.6049H115.799V15.2843Z" fill="url(#paint0_linear_2600_1969)"/>
<rect x="0.575" y="0.575" width="222.85" height="62.85" rx="8.625" stroke="url(#paint1_linear_2600_1969)" stroke-width="1.15"/>
<defs>
<linearGradient id="paint0_linear_2600_1969" x1="47.3008" y1="15.2114" x2="190.404" y2="70.6049" gradientUnits="userSpaceOnUse">
<stop stop-color="#F55280"/>
<stop offset="1" stop-color="#1CA5FC"/>
</linearGradient>
<linearGradient id="paint1_linear_2600_1969" x1="0" y1="0" x2="252.589" y2="89.7398" gradientUnits="userSpaceOnUse">
<stop stop-color="#F55280"/>
<stop offset="1" stop-color="#1CA5FC"/>
</linearGradient>
</defs>
</svg>
