<svg width="112" height="24" viewBox="0 0 112 24" fill="none" xmlns="http://www.w3.org/2000/svg">
<g clip-path="url(#clip0_2640_14288)">
<path fill-rule="evenodd" clip-rule="evenodd" d="M0.383166 22.3623L8.31173 1.25956C8.42223 0.904648 8.64529 0.594131 8.94806 0.373741C9.25084 0.153351 9.61732 0.0347363 9.99354 0.0353662H16.2403C16.2403 0.0353662 17.4896 0.0334694 17.9221 1.73378C18.5559 3.78288 24.1688 18.3315 24.1688 18.3315H34.0195C34.0195 18.3315 35.7695 18.625 35.7013 16.4346C35.6835 16.137 35.7157 15.5573 34.2597 15.249C32.602 14.7423 28.013 13.3522 28.013 13.3522C28.013 13.3522 23.2117 12.1102 23.2078 6.95019C23.2078 5.77555 23.5307 0.0353662 30.4156 0.0353662H58.526C58.526 0.0353662 59.3669 -0.26932 59.7272 0.785344C60.0876 1.84001 65.7337 16.9088 65.7337 16.9088C65.7337 16.9088 65.95 17.9834 66.4545 17.8572C66.7056 17.8572 66.8252 17.7541 66.6948 17.1459C66.5643 16.5164 64.9262 12.1972 66.4545 7.1873C67.0652 5.73524 69.0234 0.0353662 76.0649 0.0353662H102.253C102.253 0.0353662 111.143 -0.400204 111.143 7.66152C111.143 9.32437 111.028 15.4861 102.493 15.4861H99.1298V23.0736C99.1298 23.0736 99.2463 23.9711 98.1688 23.9711H91.6817C91.6817 23.9711 90.4805 24.1831 90.4805 23.0736V6.47598H77.7467C77.7467 6.47598 74.3831 6.59002 74.3831 10.0326V14.5377C74.3831 14.5377 74.2536 17.6201 77.7467 17.6201C78.677 17.6201 80.2214 17.9592 81.1103 15.249C81.4296 14.3179 81.6295 12.9491 83.0324 13.3522C84.467 13.7552 88.0779 15.0119 88.0779 15.0119C88.0779 15.0119 89.4918 15.3178 88.7986 16.9088C88.2321 18.4064 86.8244 23.9711 79.4285 23.9711H60.448C60.448 23.9711 59.7667 24.1328 59.487 23.3108C59.2073 22.4887 58.526 20.2283 58.526 20.2283H51.7987L50.8377 23.3108C50.7693 23.5073 50.6394 23.6773 50.4666 23.796C50.2938 23.9148 50.0871 23.9761 49.8766 23.9711H43.3896C43.3896 23.9711 42.0768 23.8841 42.6688 22.1252C43.3874 20.3663 49.1558 5.29043 49.1558 5.29043H32.8182C32.8182 5.29043 31.3711 5.0353 31.1364 6.00176C31.0283 6.56252 30.8509 6.90704 31.8572 7.1873C32.8634 7.46757 40.5065 10.0326 40.5065 10.0326C40.5065 10.0326 44.0561 10.6586 43.8701 15.9604C43.8701 17.1424 43.4256 23.9711 34.9805 23.9711H18.4026C18.4026 23.9711 17.8397 24.2047 17.4416 23.3108C17.0435 22.4169 16.4805 20.2283 16.4805 20.2283H9.51302L8.79225 22.8365C8.79225 22.8365 8.64256 23.9711 7.59095 23.9711H1.3442C1.3442 23.9711 -0.0913467 24.1101 0.383166 22.3623ZM53.4805 14.0756L55.4026 9.32129L56.8441 14.0756H53.4805ZM11.1948 14.0756L13.1169 9.32129L14.5585 14.0756H11.1948ZM99.1298 6.23887V9.5584H100.812C100.812 9.5584 102.734 9.5795 102.734 7.89863C102.734 7.32957 102.678 6.23887 101.052 6.23887H99.1298Z" fill="#FF5887"/>
</g>
<defs>
<clipPath id="clip0_2640_14288">
<rect width="110.857" height="24" fill="white" transform="translate(0.285706)"/>
</clipPath>
</defs>
</svg>
