<svg width="436" height="400" viewBox="0 0 436 400" fill="none" xmlns="http://www.w3.org/2000/svg">
<path fill-rule="evenodd" clip-rule="evenodd" d="M168.238 0.387953C160.727 1.45795 140.368 5.97895 132.735 8.27195C117.973 12.705 114.483 14.006 107.235 17.778C103.334 19.808 99.0644 21.74 97.7445 22.071C96.4246 22.403 91.5735 25.16 86.964 28.197C82.3555 31.234 77.8578 33.95 76.9712 34.232C76.0836 34.514 72.8938 36.987 69.8817 39.727C66.8706 42.468 64.0162 44.721 63.539 44.734C61.7569 44.785 38.4576 69.5339 35.6652 74.3429C34.9993 75.4899 32.8308 78.8649 30.846 81.8429C25.0334 90.5649 13.9883 113.133 13.9883 116.287C13.9883 117.187 12.6485 120.982 11.0101 124.719C2.39212 144.386 0.00199947 157.963 2.70762e-06 187.259C-0.00399082 226.109 4.40786 242.79 24.9705 281.68C32.6011 296.112 53.038 321.008 69.4324 335.842C79.5849 345.029 102.25 361.415 110.564 365.579C112.632 366.615 117.985 369.555 122.456 372.111C126.928 374.667 131.059 376.759 131.637 376.759C132.213 376.759 135.968 378.252 139.979 380.077C149.363 384.346 159.392 387.79 173.732 391.668C198.56 398.382 202.853 398.941 233.632 399.467C259.603 399.91 263.131 399.766 274.067 397.813C280.656 396.636 290.765 394.291 296.53 392.601C302.296 390.911 308.799 389.105 310.983 388.588C322.343 385.896 360.439 364.876 367.415 357.45C368.788 355.989 370.36 354.785 370.91 354.774C371.762 354.758 389.233 337.175 392.784 332.759C403.187 319.823 408.639 310.672 416.614 292.759C420.166 284.784 423.391 277.134 423.783 275.759C424.175 274.384 425.761 269.884 427.306 265.759C428.852 261.634 431.32 253.326 432.791 247.296C435.43 236.48 435.46 235.961 435.05 208.796C434.593 178.64 434.488 177.986 426.215 153.259C422.932 143.447 409.093 114.936 405.999 111.609C404.939 110.471 403.126 107.848 401.968 105.782C397.873 98.473 386.844 85.116 375.454 73.671C364.559 62.723 345.239 46.359 341.617 45.01C340.706 44.67 337.713 42.728 334.968 40.693C332.222 38.658 326.382 35.051 321.989 32.676C317.596 30.302 311.306 26.885 308.012 25.082C304.717 23.279 301.472 21.794 300.8 21.782C300.129 21.769 297.209 20.651 294.311 19.297C286.92 15.842 273.41 10.76 271.594 10.751C270.757 10.747 267.153 9.82495 263.584 8.70195C260.014 7.57895 250.804 5.27095 243.117 3.57295C229.511 0.567953 228.371 0.478953 200.186 0.222953C184.262 0.0789528 169.886 0.152953 168.238 0.387953Z" fill="#4EB5FD"/>
<path fill-rule="evenodd" clip-rule="evenodd" d="M10.7166 125.354C2.31724 144.836 0.00199947 158.209 2.70761e-06 187.259C-0.00399082 226.109 4.40785 242.79 24.9705 281.68C32.6011 296.112 53.038 321.008 69.4324 335.842C79.5849 345.029 102.25 361.415 110.564 365.579C112.632 366.615 117.985 369.555 122.456 372.111C126.928 374.667 131.158 376.759 131.856 376.759C132.553 376.759 136.307 378.259 140.198 380.093C148.991 384.237 158.888 387.654 173.732 391.668C198.56 398.382 202.853 398.941 233.632 399.467C259.603 399.91 263.131 399.766 274.067 397.813C280.656 396.636 290.765 394.291 296.53 392.601C302.296 390.911 308.81 389.107 311.007 388.591C313.203 388.076 319.718 385.353 325.483 382.54C331.249 379.728 337.314 376.909 338.961 376.276C343.257 374.625 364.456 360.599 367.415 357.45C368.788 355.989 370.36 354.785 370.91 354.774C371.762 354.758 389.233 337.175 392.784 332.759C402.772 320.34 408.483 310.907 415.736 294.849C418.818 288.023 421.161 282.259 420.942 282.039C420.723 281.82 419.067 284.255 417.262 287.45C404.658 309.767 388.949 327.931 370.234 341.83C324.36 375.899 263.297 388.731 201.477 377.295C149.952 367.763 103.769 343.742 67.858 307.795C49.7014 289.621 37.5152 272.821 26.4361 250.694C12.6285 223.119 6.49647 197.535 6.67518 168.259C6.77302 152.403 8.62202 138.139 12.0994 126.413C13.2166 122.648 13.9853 119.423 13.8086 119.246C13.6329 119.069 12.2412 121.818 10.7166 125.354Z" fill="#1D6394"/>
<path fill-rule="evenodd" clip-rule="evenodd" d="M176.226 107.158C167.595 109.892 159.626 115.831 155.23 122.806C152.18 127.647 150.416 136.784 151.246 143.443C152.058 149.956 155.235 156.306 171.662 184.259C186.123 208.865 189.033 212.722 197.05 217.912C208.543 225.352 224.192 227.908 236.202 224.305C251.053 219.851 262.586 206.25 262.586 193.189C262.586 187.389 259.024 178.263 252.421 167.145C248.866 161.158 241.726 149.059 236.556 140.259C231.04 130.872 225.262 122.391 222.576 119.738C217.378 114.608 208.733 109.702 200.754 107.354C194.346 105.469 181.873 105.369 176.226 107.158ZM280.556 174.1C277.536 175.353 275.162 176.802 275.28 177.319C275.398 177.836 276.721 181.184 278.22 184.759C285.226 201.466 279.328 218.37 262.501 229.817C251.816 237.084 233.448 242.759 220.609 242.759C214.479 242.759 203.438 240.445 197.667 237.95C189.721 234.515 181.231 227.155 174.728 218.065L173.231 215.971L166.512 218.496L159.793 221.02L161.521 223.975C166.28 232.122 177.856 243.13 186.709 247.928C201.763 256.088 221.111 258.785 238.417 255.136C242.649 254.244 246.73 253.456 247.485 253.386C248.555 253.287 260.21 270.96 261.832 275.138C262.215 276.127 274.315 271.976 275.191 270.555C275.502 270.052 272.828 264.743 269.251 258.756C264.591 250.959 263.078 247.62 263.913 246.987C264.556 246.501 267.199 244.892 269.786 243.411C279.949 237.595 288.486 228.383 293.356 217.978C295.816 212.72 296.029 211.25 296.011 199.759C295.992 187.843 295.837 186.897 292.674 179.509C290.42 174.246 288.825 171.769 287.702 171.79C286.792 171.807 283.577 172.846 280.556 174.1Z" fill="#FBFBFB"/>
</svg>
