<svg height="480" width="640" viewBox="0 0 640 480" xmlns="http://www.w3.org/2000/svg"><path d="M640 0H0v480h640z" fill="#fff"/><g fill="#bb4f40"><path d="M640 0H0v44h640zM640 87H0v44h640zM640 175H0v43h640zM640 262H341v43h299zM640 349H0v44h640zM640 436H0v44h640z"/></g><path d="M341 0H0v305h341z" fill="#436da2"/><path clip-rule="evenodd" d="M44 32l-5-12-5 12-13 1 10 9-3 13 11-7 11 7-3-13 10-9zm37 39l-5-13-4 13-13 1 9 8-3 13 11-7 12 7-3-13 9-8zM39 97l5 12 13 1-10 9 3 13-11-7-11 7 3-13-10-9 13-1zm42 51l-5-13-4 13-13 1 9 8-3 13 11-7 12 7-3-13 9-8zm-42 26l5 12 13 1-10 8 3 13-11-7-11 7 3-13-10-8 13-1zm42 50l-5-12-4 12-13 1 9 9-3 13 11-7 12 7-3-13 9-9zm-42 26l5 12 13 2-10 8 3 13-11-7-11 7 3-13-10-8 13-2zm80-218l-5-12-5 12-13 1 10 9-3 13 11-7 11 7-3-13 10-9zm33 26l5 13 13 1-10 8 3 13-11-7-11 7 3-13-10-8 13-1zm-33 51l-5-12-5 12-13 1 10 9-3 13 11-7 11 7-3-13 10-9zm33 26l5 13 13 1-10 8 3 13-11-7-11 7 3-13-10-8 13-1zm-33 51l-5-12-5 12-13 1 10 8-3 13 11-7 11 7-3-13 10-8zm33 26l5 12 13 1-10 9 3 13-11-7-11 7 3-13-10-9 13-1zm-33 50l-5-12-5 12-13 2 10 8-3 13 11-7 11 7-3-13 10-8zm70-242l5 12 13 1-10 9 3 13-11-7-11 7 3-13-10-9 13-1zm43 51l-5-13-5 13-13 1 10 8-3 13 11-7 11 7-3-13 10-8zm-43 26l5 12 13 1-10 9 3 13-11-7-11 7 3-13-10-9 13-1zm43 51l-5-13-5 13-13 1 10 8-3 13 11-7 11 7-3-13 10-8zm-43 26l5 12 13 1-10 8 3 13-11-7-11 7 3-13-10-8 13-1zm43 50l-5-12-5 12-13 1 10 9-3 13 11-7 11 7-3-13 10-9zm-43 26l5 12 13 2-10 8 3 13-11-7-11 7 3-13-10-8 13-2zm80-218l-4-12-5 12-13 1 9 9-3 13 12-7 11 7-3-13 9-9zm33 26l5 13 13 1-10 8 3 13-11-7-11 7 3-13-10-8 13-1zm-33 51l-4-12-5 12-13 1 9 9-3 13 12-7 11 7-3-13 9-9zm33 26l5 13 13 1-10 8 3 13-11-7-11 7 3-13-10-8 13-1zm-33 51l-4-12-5 12-13 1 9 8-3 13 12-7 11 7-3-13 9-8zm33 26l5 12 13 1-10 9 3 13-11-7-11 7 3-13-10-9 13-1zm-33 50l-4-12-5 12-13 2 9 8-3 13 12-7 11 7-3-13 9-8z" fill="#fff" fill-rule="evenodd"/></svg>
