<svg width="224" height="64" viewBox="0 0 224 64" fill="none" xmlns="http://www.w3.org/2000/svg">
<path fill-rule="evenodd" clip-rule="evenodd" d="M68.0549 27.1571C61.9677 23.7406 55.9724 20.3703 49.9771 17C49.9541 17.0462 49.9254 17.0923 49.8967 17.1385C49.868 17.1847 49.8393 17.2308 49.8163 17.277C52.1773 19.6849 54.5383 22.0989 56.8933 24.5066C59.1665 26.8307 61.434 29.1491 63.6905 31.4507C64.4174 30.7316 65.1275 30.035 65.8402 29.3359L65.8408 29.3354C66.5692 28.6209 67.3003 27.9037 68.0549 27.1571ZM58.263 27.0532L58.2625 27.0527L58.262 27.0522L58.2612 27.0513C55.0907 23.8143 51.9329 20.5904 48.7351 17.3463C47.9988 17.9293 47.9994 18.6213 48 19.3164L48.0001 19.3777V44.124C48.0001 44.4472 48.0001 44.7934 48.092 45.0935C48.3906 46.1554 49.0108 46.3401 49.7688 45.5552L49.7699 45.5542L49.7701 45.554C53.9962 41.33 58.2224 37.106 62.4256 32.882C62.6731 32.6747 62.865 32.4488 63.1012 32.1709L63.1012 32.1709L63.1836 32.074C61.5352 30.3939 59.8974 28.7218 58.263 27.0532ZM94.125 34.1054C93.1258 34.1401 92.1266 34.1357 91.1274 34.1314C90.7943 34.13 90.4612 34.1285 90.1281 34.1285H88.3135V35.8137H93.1832C93.0224 38.0067 91.5982 39.5764 89.439 39.9919C87.0271 40.4767 84.6841 39.3686 83.5815 37.2449C82.479 35.1211 82.9384 32.2356 84.6152 30.6428C85.4881 29.8118 86.4988 29.327 87.6933 29.1885C89.3931 29.0038 90.8172 29.5578 92.0577 30.7582C92.1992 30.6239 92.3353 30.4923 92.4734 30.3588L92.474 30.3582L92.4743 30.358L92.4746 30.3576L92.4747 30.3575C92.7398 30.1013 93.0122 29.8379 93.344 29.5348C93.1124 29.3696 92.9027 29.2093 92.7045 29.0578L92.7043 29.0577L92.7042 29.0576C92.2933 28.7435 91.9322 28.4676 91.5293 28.2651C88.3135 26.58 84.2477 27.6649 82.2722 30.7121C80.3197 33.7361 81.0088 38.0759 83.8572 40.292C86.2002 42.1157 88.8418 42.3465 91.4834 41.1C94.0101 39.9227 95.0438 37.7527 94.9979 34.9826C94.9749 34.3132 94.7911 34.0823 94.125 34.1054ZM123.849 32.1202H125.411C125.418 32.1605 125.428 32.2028 125.439 32.247L125.439 32.2471C125.466 32.3548 125.496 32.4741 125.48 32.6049C125.484 33.082 125.488 33.5591 125.493 34.0362C125.515 36.4215 125.537 38.8069 125.48 41.1923C125.411 44.5857 122.678 46.6171 119.393 45.786C118.037 45.4398 117.142 44.5395 116.453 43.2237C116.869 43.0236 117.271 42.8522 117.659 42.6869C117.763 42.6424 117.866 42.5983 117.969 42.5542C119.347 44.2394 120.518 44.678 122.034 44.0547C123.321 43.5238 123.895 42.3234 123.734 40.3612C122.517 41.4924 121.093 42.1849 119.531 41.6078C118.612 41.2846 117.693 40.6152 117.073 39.8534C115.58 38.0067 115.832 34.8441 117.44 33.182C119.186 31.3584 121.093 31.3353 123.78 33.159C123.795 32.8973 123.811 32.6768 123.826 32.4562V32.4561C123.834 32.3458 123.841 32.2356 123.849 32.1202ZM117.9 36.6678C117.877 38.7223 119.255 40.2689 120.978 40.1535C122.746 40.0381 123.895 38.5376 123.78 36.4831C123.711 34.6594 122.448 33.3436 120.794 33.3667C119.163 33.3898 117.923 34.7749 117.9 36.6678ZM145.99 27.7804C147.195 27.7558 148.368 27.7318 149.53 27.8265C151.712 27.9881 153.228 29.7886 153.205 31.9124C153.159 34.0131 151.528 35.7213 149.369 35.8829C148.637 35.9469 147.893 35.9333 147.108 35.9189L147.108 35.9189C146.761 35.9125 146.405 35.906 146.038 35.906V38.7453V41.4462H144.293V27.8034C144.867 27.8034 145.432 27.7918 145.99 27.7804ZM147.109 34.1875C147.881 34.2019 148.613 34.2156 149.346 34.1516C150.472 34.0592 151.322 33.0204 151.345 31.8662C151.368 30.7813 150.587 29.6501 149.53 29.5347C148.754 29.4552 147.968 29.4743 147.163 29.4939C146.8 29.5027 146.433 29.5116 146.061 29.5116V34.1746C146.42 34.1746 146.768 34.1811 147.109 34.1875L147.109 34.1875ZM63.0673 33.436C61.5364 35.016 59.9889 36.5878 58.4398 38.1612C57.4089 39.2083 56.3772 40.2562 55.3492 41.3077C54.9164 41.7503 54.4836 42.1954 54.0499 42.6414L54.0498 42.6415L54.0497 42.6417L54.0495 42.6418L54.0494 42.6419L54.0493 42.6421C53.1713 43.545 52.29 44.4514 51.3983 45.3474C51.4098 45.3705 51.427 45.3936 51.4443 45.4167C51.4615 45.4398 51.4787 45.4628 51.4902 45.4859C56.8194 42.5542 62.1485 39.6225 67.5696 36.6216C67.1726 36.2057 66.785 35.8085 66.4066 35.4209C65.756 34.7543 65.133 34.1159 64.5374 33.459C64.0091 32.8127 63.6416 32.8358 63.0673 33.436ZM69.3635 27.9188C70.9944 28.796 72.6023 29.6732 74.1873 30.6197C75.152 31.1968 75.152 32.3279 74.2102 32.9281C72.4415 33.9669 70.6269 34.9595 68.8352 35.929C68.6284 36.0445 68.215 35.9983 68.0542 35.8598C67.0164 34.9307 66.0097 33.9704 64.9703 32.979L64.9701 32.9788L64.9701 32.9788C64.7441 32.7633 64.5167 32.5463 64.287 32.3279L64.5051 32.1055L64.5053 32.1053L64.5054 32.1052C65.9973 30.584 67.2909 29.265 68.6054 27.9881C68.7433 27.8496 69.1567 27.8034 69.3635 27.9188ZM161.865 31.797C159.752 31.5892 158.213 32.3741 157.523 34.0593L158.213 34.4055C158.413 34.4969 158.627 34.5738 158.833 34.6477L158.833 34.6477C158.887 34.6672 158.941 34.6864 158.994 34.7056C159.981 33.4821 161.107 33.1128 162.301 33.5976C163.266 33.99 163.726 34.7518 163.611 35.6059C163.289 35.5857 162.969 35.5576 162.651 35.5297C161.88 35.462 161.12 35.3953 160.372 35.4443C158.58 35.5597 157.248 36.7832 157.11 38.3068C156.995 39.7149 157.569 40.7768 158.764 41.4C160.142 42.0926 161.911 41.931 162.945 41.0076L162.945 41.0073L162.945 41.0072C163.152 40.8227 163.358 40.6381 163.657 40.3612C163.703 40.7999 163.726 41.0999 163.748 41.4462H165.333C165.333 40.7745 165.344 40.1109 165.354 39.4536C165.377 37.8974 165.401 36.3766 165.288 34.8672C165.173 33.1128 163.68 31.9586 161.865 31.797ZM163.174 38.9531C162.462 39.9226 161.153 40.4536 160.142 40.015C159.66 39.8072 159.085 39.2994 159.017 38.8377C158.948 38.376 159.315 37.6835 159.706 37.3603C160.038 37.0927 160.504 36.9705 160.884 36.8709C161.028 36.8329 161.16 36.7983 161.268 36.7601C161.493 36.7884 161.676 36.809 161.833 36.8266L161.833 36.8266L161.833 36.8267C162.059 36.8521 162.23 36.8713 162.393 36.8986C163.863 37.1756 164.07 37.7296 163.174 38.9531ZM131.269 33.2051C132.555 31.7508 134.209 31.4738 136.001 31.9817C138.114 32.5818 139.377 34.7518 138.964 37.1294H131.751C131.82 38.6299 132.578 39.6456 133.819 40.0381C135.151 40.4536 136.207 40.015 137.287 38.5837C137.607 38.7124 137.927 38.8521 138.255 38.9953L138.255 38.9956L138.255 38.9957C138.398 39.058 138.542 39.121 138.688 39.1839C138.137 40.8229 136.552 41.8386 134.6 41.7925C132.647 41.7463 131.154 40.8691 130.396 39.0454C129.523 36.9679 129.753 34.9364 131.269 33.2051ZM134.737 33.3898C133.313 33.3205 132.257 34.1285 131.935 35.5828H137.126C136.966 34.2439 136.093 33.459 134.737 33.3898ZM100.556 31.7739C97.7534 31.7508 95.732 33.8053 95.7091 36.6908C95.6861 39.6225 97.7075 41.7925 100.487 41.7925C103.289 41.7925 105.288 39.738 105.334 36.8524C105.357 33.8976 103.358 31.7739 100.556 31.7739ZM100.533 40.1766C98.856 40.1996 97.4778 38.6992 97.4778 36.8063C97.4778 34.8903 98.7871 33.4129 100.487 33.3898C102.21 33.3667 103.542 34.8441 103.542 36.7601C103.565 38.653 102.233 40.1535 100.533 40.1766ZM105.91 36.7139C105.933 33.8053 107.978 31.7508 110.826 31.7739C113.559 31.797 115.558 33.9438 115.535 36.8293C115.512 39.6918 113.468 41.7925 110.711 41.7925C107.909 41.7694 105.887 39.6225 105.91 36.7139ZM107.656 36.8063C107.679 38.6992 109.057 40.1996 110.757 40.1766C112.457 40.1535 113.789 38.6068 113.766 36.737C113.743 34.821 112.388 33.3667 110.665 33.3898C108.942 33.4129 107.633 34.8903 107.656 36.8063ZM172.616 33.436C172.357 34.0702 172.103 34.7044 171.85 35.3369C171.494 36.2239 171.14 37.1077 170.778 37.9836C170.73 38.0915 170.676 38.187 170.613 38.2992L170.613 38.2992C170.554 38.4029 170.488 38.5209 170.41 38.6761C169.606 36.737 168.871 34.9595 168.136 33.182C167.631 31.9355 167.149 31.7508 165.816 32.2587C166.242 33.2249 166.664 34.1943 167.087 35.1645L167.088 35.1675L167.089 35.1688L167.089 35.1699L167.092 35.1758C167.808 36.8211 168.526 38.4688 169.262 40.1073C169.515 40.6844 169.515 41.1461 169.239 41.7001C168.705 42.7736 168.222 43.8643 167.731 44.972L167.62 45.2226L167.493 45.509C168.371 45.6758 168.795 45.7565 169.086 45.5956C169.358 45.4447 169.513 45.0815 169.813 44.3779L169.813 44.3777L169.813 44.3776L169.813 44.3774L169.813 44.3773L169.813 44.3771L169.814 44.3769L169.814 44.3768L169.814 44.3766L169.814 44.3764L169.814 44.3763C170.457 42.8994 171.1 41.4226 171.72 39.9457C172.822 37.3834 173.925 34.821 175.073 32.1894C173.236 31.9124 173.236 31.9124 172.616 33.436ZM128.834 41.4231H127.203V27.8034H128.834V41.4231ZM154.377 41.4462H156.008V27.8265H154.377V41.4462ZM119.139 23.4287C119.082 23.5159 119.025 23.6039 118.98 23.6944C118.939 23.5955 118.883 23.4967 118.828 23.3978L118.828 23.3976C118.728 23.2196 118.627 23.0415 118.613 22.8634C118.579 21.545 118.582 20.2266 118.587 18.7668V18.766V18.7626V18.7592V18.7557V18.7521V18.7485V18.7448C118.588 18.2434 118.59 17.7252 118.59 17.1847C118.763 17.2834 118.925 17.3621 119.07 17.4332C119.368 17.5782 119.599 17.6913 119.738 17.8772C120.703 19.2161 121.622 20.6011 122.541 21.9862C122.609 21.9862 122.678 21.9631 122.747 21.94C122.747 21.6226 122.746 21.3052 122.744 20.9878C122.74 20.0356 122.736 19.0834 122.77 18.1311C122.77 17.9545 122.881 17.7891 122.995 17.6193L122.995 17.6193C123.045 17.5449 123.096 17.4698 123.138 17.3924C123.184 17.4694 123.245 17.5463 123.306 17.6233C123.429 17.7772 123.551 17.9311 123.551 18.085C123.585 19.4372 123.581 20.8021 123.577 22.3115V22.3118V22.3121V22.3123V22.3126V22.313V22.3142V22.3182C123.576 22.8423 123.574 23.3839 123.574 23.9484C123.37 23.8198 123.184 23.723 123.021 23.638C122.744 23.4941 122.533 23.3838 122.403 23.2097C121.822 22.4093 121.277 21.5849 120.734 20.7625L120.733 20.7619L120.733 20.7614L120.733 20.761C120.524 20.4453 120.316 20.1299 120.106 19.8163C119.945 19.5624 119.761 19.3084 119.394 19.1007C119.394 19.4189 119.395 19.7356 119.396 20.0516V20.0521C119.401 20.9969 119.405 21.9352 119.371 22.8865C119.371 23.073 119.256 23.2491 119.139 23.4287ZM92.2648 23.6945C92.4002 23.6945 92.5355 23.5856 92.6773 23.4716C92.7521 23.4114 92.8287 23.3498 92.908 23.302C92.8391 23.2674 92.7702 23.2265 92.7012 23.1857C92.5405 23.0904 92.3797 22.995 92.2189 22.9789C91.4612 22.9442 90.6906 22.9485 89.9168 22.9529C89.6584 22.9543 89.3996 22.9558 89.1408 22.9558V20.7858C89.3565 20.7858 89.5642 20.7898 89.7664 20.7937C90.2533 20.803 90.7077 20.8117 91.1622 20.7628C91.4685 20.732 91.7748 20.6396 92.081 20.5473C92.2342 20.5011 92.3873 20.455 92.5404 20.4165C92.3629 19.8651 91.9927 19.929 91.6288 19.9917C91.4747 20.0183 91.3218 20.0447 91.1852 20.0241C90.7203 19.9596 90.2554 19.9739 89.7827 19.9884C89.5781 19.9947 89.372 20.001 89.1638 20.001V18.085C89.4374 18.085 89.7065 18.0865 89.972 18.0879C90.7542 18.0922 91.5044 18.0964 92.2418 18.0619C92.3574 18.0619 92.4638 17.9798 92.5726 17.8958C92.6369 17.8463 92.7019 17.7961 92.7701 17.7618C92.7343 17.7185 92.6984 17.664 92.6625 17.6094C92.5835 17.4894 92.5046 17.3694 92.4256 17.3694C91.0474 17.3463 89.6691 17.3463 88.2909 17.3463V23.6714C89.6691 23.7175 90.9555 23.7175 92.2648 23.6945ZM86.9594 22.5402C86.9365 22.748 86.7527 22.9788 86.5919 23.0942C85.3056 24.0638 83.2153 24.0176 82.1586 23.025C81.102 22.0554 80.8723 20.0471 81.6992 18.639C82.4343 17.4386 83.5828 17.1847 84.8691 17.3232C85.9487 17.4386 86.569 17.9926 86.9365 19.3546C86.7732 19.2769 86.6195 19.225 86.4852 19.1796C86.2604 19.1037 86.0895 19.046 86.0177 18.916C85.5583 18.1311 84.8462 17.9695 84.0422 18.0388C83.1923 18.108 82.5721 18.5466 82.2964 19.3546C81.9059 20.4165 81.883 21.5014 82.6869 22.3786C83.3301 23.0942 84.226 23.1866 85.1448 22.9326C85.9717 22.7018 86.4082 22.2863 86.0406 21.2475C85.9441 21.2475 85.8461 21.2489 85.747 21.2503C85.4456 21.2547 85.1344 21.2592 84.8232 21.2244C84.692 21.2079 84.5842 21.0973 84.4747 20.9849C84.4309 20.9399 84.3868 20.8947 84.3408 20.8551C84.3944 20.8166 84.448 20.7653 84.5016 20.714C84.6088 20.6114 84.716 20.5088 84.8232 20.5088C85.3177 20.4745 85.825 20.4784 86.3824 20.4827C86.5759 20.4842 86.7753 20.4857 86.9824 20.4857C86.9824 20.6664 86.9839 20.8442 86.9853 21.0198V21.0201V21.0204V21.0207V21.021V21.0211C86.9896 21.5403 86.9938 22.0402 86.9594 22.5402ZM114.544 23.7868C116.336 23.7868 117.53 22.4941 117.553 20.5319C117.553 18.5929 116.359 17.2771 114.567 17.254C112.707 17.2309 111.535 18.5005 111.535 20.555C111.535 22.5172 112.73 23.7868 114.544 23.7868ZM114.567 18.0157C115.853 18.0388 116.68 19.0315 116.68 20.5781C116.68 22.1017 115.831 23.0943 114.498 23.0712C113.212 23.0481 112.408 22.0555 112.408 20.5088C112.431 18.916 113.235 17.9927 114.567 18.0157ZM106.577 19.3508V19.3509V19.3509C106.581 20.5434 106.585 21.6752 106.551 22.7941C106.551 23.0085 106.434 23.2229 106.316 23.4372C106.27 23.523 106.223 23.6087 106.183 23.6944C106.134 23.6016 106.073 23.511 106.013 23.4213C105.878 23.2208 105.747 23.0245 105.747 22.8172C105.713 21.6993 105.717 20.5686 105.721 19.3678V19.3677V19.3675C105.722 18.9567 105.724 18.5376 105.724 18.108C105.583 18.108 105.446 18.1096 105.313 18.111C104.926 18.1153 104.567 18.1193 104.208 18.085C104.085 18.0696 103.973 17.9615 103.857 17.8502C103.799 17.7948 103.741 17.7386 103.68 17.6925C103.724 17.6603 103.771 17.6209 103.819 17.5809L103.819 17.5808C103.941 17.4773 104.069 17.3694 104.185 17.3694C105.517 17.3463 106.85 17.3463 108.182 17.3694C108.289 17.3694 108.396 17.472 108.503 17.5745L108.503 17.5746C108.557 17.6259 108.611 17.6772 108.664 17.7156C108.637 17.7426 108.61 17.7722 108.581 17.8026C108.464 17.9281 108.334 18.0664 108.205 18.085C107.849 18.1191 107.48 18.1154 107.052 18.1111C106.901 18.1096 106.742 18.108 106.574 18.108C106.574 18.5306 106.575 18.9443 106.577 19.3508ZM96.5153 23.5328V18.1311H98.5137C98.5137 17.4155 98.5137 17.3924 97.9624 17.3924C96.9287 17.3693 95.8951 17.3462 94.8614 17.4155C94.7541 17.4215 94.633 17.3995 94.5087 17.377C94.154 17.3126 93.7741 17.2437 93.621 17.8079C93.7532 17.8448 93.8854 17.8935 94.0169 17.942L94.0169 17.942C94.2966 18.045 94.5728 18.1468 94.8384 18.1311C95.5964 18.0849 95.7343 18.4081 95.7113 19.0775C95.6654 20.4164 95.6883 21.7553 95.7113 23.0942C95.6654 23.7406 95.6883 23.7406 96.5153 23.5328ZM102.625 17.4848V23.6252C102.051 23.8098 101.798 23.6713 101.798 23.0481C101.821 21.386 101.821 19.7239 101.798 18.0619C101.775 17.4155 102.028 17.277 102.625 17.4848Z" fill="url(#paint0_linear_2624_1777)"/>
<rect x="0.575" y="0.575" width="222.85" height="62.85" rx="8.625" stroke="url(#paint1_linear_2624_1777)" stroke-width="1.15"/>
<defs>
<linearGradient id="paint0_linear_2624_1777" x1="48" y1="17" x2="182.783" y2="76.872" gradientUnits="userSpaceOnUse">
<stop stop-color="#F55280"/>
<stop offset="1" stop-color="#1CA5FC"/>
</linearGradient>
<linearGradient id="paint1_linear_2624_1777" x1="0" y1="0" x2="252.589" y2="89.7398" gradientUnits="userSpaceOnUse">
<stop stop-color="#F55280"/>
<stop offset="1" stop-color="#1CA5FC"/>
</linearGradient>
</defs>
</svg>
