<svg width="459" height="401" viewBox="0 0 459 401" fill="none" xmlns="http://www.w3.org/2000/svg">
<path fill-rule="evenodd" clip-rule="evenodd" d="M216.134 1.85503C201.843 3.89303 195.546 5.09403 183.187 8.14103C168.585 11.741 162.857 13.485 152.237 17.567C133.482 24.775 111.501 36.066 96.214 46.345C89.1374 51.103 83.1231 55.29 82.8485 55.649C82.574 56.008 79.2044 58.749 75.3606 61.739C68.0424 67.432 54.2556 81.069 45.5397 91.235C42.7222 94.522 39.8708 97.801 39.2039 98.521C38.537 99.242 37.2041 101.165 36.2427 102.795C35.2822 104.425 34.1431 105.759 33.7118 105.759C33.2815 105.759 32.929 106.194 32.929 106.725C32.929 107.256 30.504 111.418 27.5407 115.975C22.4869 123.745 13.0201 141.898 11.7332 146.287C11.4157 147.372 10.031 151.409 8.65719 155.259C6.1083 162.403 3.0712 174.464 1.08939 185.319C0.480375 188.652 -0.00983406 199.227 0.000149841 208.819C0.021116 228.37 1.20121 237.146 6.30997 255.759C7.14063 258.784 8.774 264.859 9.93912 269.259C13.0481 280.991 15.6549 288.167 20.4751 298.259C27.1933 312.325 40.4289 331.599 48.9742 339.759C58.5996 348.95 63.8212 353.602 68.8691 357.481C71.8902 359.804 74.8115 362.062 75.3606 362.5C78.3697 364.899 92.5509 373.144 100.573 377.159C114.792 384.275 131.866 390.736 144.249 393.687C146.995 394.342 150.814 395.256 152.736 395.72C156.389 396.601 164.65 398.047 175.781 399.752C184.336 401.063 232.024 401.056 240.512 399.742C258.239 396.999 261.945 396.305 273.541 393.551C285.906 390.615 302.384 385.584 305.725 383.724C306.678 383.193 307.884 382.759 308.402 382.759C310.686 382.759 339.169 369 349.419 362.945C359.715 356.862 363.538 354.281 373.371 346.772C385.562 337.463 387.523 335.717 400.846 322.319C416.533 306.542 429.024 289.752 437.718 272.759C439.829 268.634 441.869 264.809 442.254 264.259C442.639 263.709 444.191 260.109 445.702 256.259C460.02 219.799 462.349 186.768 453.124 151.009C449.727 137.837 447.197 128.308 446.157 124.759C444.316 118.48 437.927 103.394 434.51 97.259C432.672 93.959 430.918 90.471 430.612 89.509C430.306 88.546 429.713 87.759 429.295 87.759C428.876 87.759 427.975 86.409 427.293 84.759C426.611 83.109 425.729 81.759 425.335 81.759C424.941 81.759 424.115 80.652 423.5 79.3C422.372 76.82 411.437 63.813 405.81 58.259C401.241 53.749 390.314 44.467 386.359 41.737C384.437 40.41 382.271 38.748 381.546 38.042C380.82 37.336 379.84 36.759 379.37 36.759C378.9 36.759 377.904 36.197 377.157 35.509C375.885 34.338 374.778 33.648 369.137 30.509C367.901 29.822 366.666 29.012 366.391 28.71C365.784 28.041 344.552 17.759 343.78 17.759C343.477 17.759 341.815 17.106 340.085 16.309C335.925 14.392 320.26 9.29203 313.976 7.81003C311.23 7.16303 307.411 6.23103 305.489 5.74003C302.147 4.88603 296.868 3.97603 282.445 1.76603C274.624 0.568025 224.69 0.635025 216.134 1.85503Z" fill="#B40151"/>
<path fill-rule="evenodd" clip-rule="evenodd" d="M216.135 1.85503C199.074 4.28803 189.577 6.27103 171.207 11.237C141.097 19.377 104.958 38.226 77.5361 60.092C67.4244 68.154 54.4493 80.79 45.5297 91.259C42.7182 94.559 40.1414 97.484 39.8029 97.759C39.4655 98.034 35.4839 103.884 30.9552 110.759C14.4708 135.786 6.50265 155.679 1.09038 185.319C-0.297383 192.915 -0.360281 224.87 0.998527 231.96C1.55663 234.874 2.48912 239.734 3.07019 242.759C4.49189 250.156 12.0148 269.153 18.0061 280.474C59.8895 359.618 167.43 396.588 273.196 368.202C327.911 353.517 376.611 322.699 409.437 281.987C428.015 258.946 442.571 228.942 448.193 202.103C452.104 183.431 452.583 157.171 449.281 142.386C448.806 140.256 448.634 137.948 448.897 137.259C449.836 134.811 443.813 116.606 437.485 102.759C435.698 98.849 426.475 83.086 424.612 80.759C423.952 79.934 421.347 76.472 418.822 73.067C408.832 59.589 385.996 40.149 367.859 29.685C363.056 26.913 344.585 17.759 343.796 17.759C343.486 17.759 341.816 17.106 340.086 16.309C335.926 14.392 320.261 9.29203 313.977 7.81003C311.231 7.16303 307.412 6.23103 305.49 5.74003C302.148 4.88603 296.869 3.97603 282.446 1.76603C274.625 0.568025 224.691 0.635025 216.135 1.85503Z" fill="#FF5F8E"/>
<path fill-rule="evenodd" clip-rule="evenodd" d="M165.034 106.83C162.738 107.969 160.05 110.106 159.062 111.579C158.073 113.053 145.462 134.95 131.038 160.239C108.205 200.272 104.812 206.762 104.812 210.413C104.812 215.94 108.223 220.021 114.536 222.048C125.406 225.538 188.719 246.103 195.167 248.237C239.322 262.856 239.768 262.981 246.24 262.568C254.867 262.018 258.148 259.153 265.999 245.315C269.413 239.296 272.637 234.227 273.163 234.052C273.689 233.876 280.616 240.826 288.556 249.496C313.954 277.227 311.936 275.339 314.992 274.233C317.193 273.436 322.377 265.018 343.533 227.881C357.753 202.923 369.386 181.647 369.386 180.6C369.386 177.757 367.144 177.379 357.588 178.611C331.658 181.953 305.189 184.852 303.133 184.575C300.867 184.27 301.014 183.862 307.375 172.759C318.205 153.855 316.739 149.786 296.79 143.412C290.866 141.519 261.646 132.048 231.855 122.365C196.365 110.829 176.227 104.759 173.449 104.76C171.117 104.76 167.33 105.692 165.034 106.83Z" fill="#FAFAFA"/>
</svg>
