<svg width="70" height="30" viewBox="0 0 70 30" fill="none" xmlns="http://www.w3.org/2000/svg">
<g clip-path="url(#clip0_2640_14264)">
<path d="M61.1387 24.9199C63.4211 24.9017 65.7061 24.9082 67.9886 24.9199C68.4819 24.9199 68.6045 24.7655 68.4153 24.293C67.9807 23.2119 67.5827 22.1138 67.1716 21.0223C64.613 14.2316 62.0583 7.44046 59.5075 0.648905C59.3169 0.129739 59.0403 0.0246082 58.5483 0.0259061C55.8744 0.0349915 53.1978 0.0103311 50.5239 0.0090332C43.6945 0.0090332 36.865 0.0090332 30.0356 0.0090332C24.599 0.0090332 19.1625 0.0310978 13.7233 0.0362894C9.44116 0.0371547 5.15819 0.0328283 0.874351 0.0233103C0.384981 0.0233103 0.180098 0.137527 0.181403 0.672268C0.196193 8.52465 0.196193 16.377 0.181403 24.2294C0.181403 24.7797 0.379761 24.9316 0.903061 24.9251C2.96886 24.9043 5.03596 24.8914 7.10175 24.9251C7.75425 24.9381 7.97087 24.7525 7.96435 24.0892C7.93303 21.2338 7.96435 18.3784 7.93825 15.523C7.93825 14.9 8.1614 14.7443 8.74212 14.791C10.1489 14.9091 11.0206 15.6995 11.6549 16.8884C12.9925 19.3856 14.364 21.8633 15.7003 24.3592C15.9091 24.7486 16.1558 24.9277 16.6138 24.9238C19.1155 24.903 21.6158 24.9108 24.1175 24.903C24.293 24.8886 24.4674 24.8626 24.6395 24.8252C24.5351 24.5799 24.4711 24.3981 24.3785 24.2294C23.2849 22.1424 22.2083 20.0449 21.0834 17.9735C20.1529 16.2576 19.0372 14.7014 17.0536 14.0382C17.0262 14.0291 17.0144 13.9733 16.9857 13.9214C17.1489 13.8565 17.3068 13.7916 17.4686 13.7319C21.1669 12.4236 22.4941 10.6428 22.6676 6.73353C22.6898 6.24292 22.9169 6.16894 23.3201 6.17023C25.3651 6.17672 27.41 6.17023 29.4536 6.17023C30.388 6.17023 30.3893 6.17023 30.3893 7.09435C30.3893 12.761 30.401 18.429 30.3749 24.097C30.3749 24.7706 30.5837 24.942 31.2284 24.9303C33.2067 24.894 35.1864 24.9186 37.1661 24.916C38.1331 24.916 38.1344 24.9095 38.1344 23.9737C38.1344 18.285 38.1344 12.5949 38.1239 6.90615C38.1239 6.34935 38.2675 6.11572 38.8547 6.16115C39.442 6.20658 40.0292 6.18321 40.6164 6.17153C42.5922 6.13389 44.568 6.08587 46.5437 6.04953C47.1623 6.03785 47.7808 6.04953 48.5495 6.04953C46.1535 12.3989 43.8189 18.5822 41.4464 24.8693C41.8053 24.8952 41.9541 24.916 42.0989 24.916C44.23 24.916 46.3623 24.8901 48.4934 24.9342C49.1459 24.9472 49.4199 24.7019 49.5739 24.11C49.8231 23.1496 50.1181 22.2008 50.4391 21.2624C50.503 21.0768 50.7745 20.8354 50.9533 20.8341C53.5841 20.8073 56.2154 20.8073 58.8471 20.8341C59.0429 20.8341 59.3404 21.0937 59.4109 21.2883C59.7528 22.2644 60.0451 23.2599 60.3335 24.2554C60.4575 24.6733 60.6363 24.9199 61.1387 24.9199ZM13.0003 9.79401C11.5035 9.99389 9.98317 10.0198 8.47199 10.1237C8.07397 10.1496 7.94086 9.93808 7.94999 9.56558C7.96304 8.89585 7.94999 8.22613 7.94999 7.55641C7.94999 6.90745 7.95782 6.25849 7.94999 5.60954C7.94347 5.23054 8.09746 5.05143 8.49026 5.06441C9.94141 5.11763 11.3991 5.10594 12.845 5.22535C14.1878 5.33697 14.8664 6.13389 14.9173 7.43959C14.9669 8.69598 14.3092 9.6175 13.0003 9.79401ZM52.2413 15.375C53.1195 12.4885 53.9834 9.65384 54.8513 6.81919H55.0418C55.9109 9.63956 56.7787 12.4612 57.6753 15.375H52.2413Z" fill="#FF5887"/>
<path d="M32.0283 26.136C31.2323 26.3138 31.7973 27.0445 31.6486 27.4988C31.6241 27.6478 31.6219 27.7996 31.642 27.9492H31.6538C31.6538 28.445 31.6277 28.9421 31.6694 29.4327C31.6838 29.6001 31.8613 29.8818 31.98 29.8909C32.7787 29.9506 33.6282 30.0388 34.2207 29.3535C34.7701 28.7201 34.8588 27.9635 34.5456 27.1717C34.1907 26.2749 33.3046 25.8518 32.0283 26.136ZM33.5382 28.8486C33.3463 29.0213 33.0005 29.0667 32.7226 29.0706C32.6534 29.0706 32.5568 28.6955 32.5125 28.4839C32.4923 28.3116 32.4901 28.1376 32.5059 27.9648C32.4876 27.8156 32.4876 27.6648 32.5059 27.5157C32.566 27.2898 32.6547 26.8979 32.7565 26.8901C33.0274 26.8789 33.2932 26.9661 33.5042 27.1354C33.9297 27.5079 33.9571 28.4684 33.5382 28.8486Z" fill="#FF5887"/>
<path d="M53.5854 26.2178C53.1182 26.088 52.5988 26.1425 52.1029 26.1062C51.7662 26.0828 51.6344 26.236 51.6436 26.5631C51.6566 27.0381 51.6436 27.5131 51.6436 27.9908C51.6436 28.2062 51.6436 28.423 51.6436 28.6397C51.6436 30.0025 51.8693 30.1726 53.2448 29.8702C53.3074 29.8559 53.3753 29.8351 53.4327 29.8169C54.2405 29.5976 54.6503 29.0291 54.6907 28.0725C54.7299 27.1549 54.3514 26.4372 53.5854 26.2178ZM53.5006 28.8785C53.3257 29.0395 52.9981 29.0758 52.7358 29.0784C52.6719 29.0784 52.5623 28.7397 52.5466 28.5502C52.5207 28.1639 52.5164 27.7766 52.5336 27.3898C52.5479 26.8252 52.8716 26.6215 53.2996 26.9758C53.5958 27.2211 53.7433 27.6455 53.9443 27.9687C53.7655 28.3685 53.7002 28.6994 53.5045 28.8837L53.5006 28.8785Z" fill="#FF5887"/>
<path d="M43.3438 26.0958C42.3103 25.8246 41.5403 26.3476 41.278 27.4989C41.017 28.6177 41.6069 29.7741 42.5191 29.9545C43.6557 30.1791 44.5366 29.3406 44.547 28.0245C44.5549 27.0303 44.0942 26.2918 43.3438 26.0958ZM43.4326 28.876C43.1168 29.3653 42.4538 29.3095 42.279 28.7579C42.1567 28.3366 42.1238 27.8946 42.1824 27.46C42.2307 27.0628 42.5243 26.6591 42.9654 26.8331C43.2512 26.9447 43.43 27.3522 43.6244 27.6546C43.6831 27.7442 43.6335 27.9051 43.6335 28.0336L43.7145 28.0557C43.6283 28.3296 43.5866 28.6385 43.4326 28.876Z" fill="#FF5887"/>
<path d="M17.1423 27.6819C17.1671 27.6585 17.1593 27.5988 17.1632 27.5521C17.2102 27.0602 17.2141 26.4891 16.679 26.3346C16.08 26.1607 15.4171 26.1957 14.7803 26.1659C14.7411 26.1659 14.6498 26.3788 14.6498 26.4943C14.6393 27.4872 14.6263 28.4814 14.6615 29.4795C14.6615 29.6313 14.9225 29.7754 15.053 29.9234C15.2109 29.7702 15.4354 29.643 15.5085 29.4574C15.5946 29.2407 15.5489 28.9733 15.5607 28.7267C15.8318 28.8833 16.0472 29.1201 16.1766 29.4042C16.4102 29.961 16.7417 30.0531 17.3172 29.6495C16.8461 29.0174 16.4076 28.384 17.1423 27.6819ZM15.5763 27.9012V26.8849C16.0566 26.7551 16.3084 26.9459 16.3032 27.3678C16.298 27.7896 16.0213 27.9492 15.5711 27.9051L15.5763 27.9012Z" fill="#FF5887"/>
<path d="M2.47947 27.7429C2.53037 27.6975 2.51993 27.5794 2.52776 27.4937C2.57604 26.9901 2.50818 26.4437 1.98749 26.3009C1.40416 26.1413 0.763414 26.1867 0.146155 26.1711C0.101785 26.1711 0.0156562 26.4216 0.0156562 26.5605C-3.67229e-06 27.5301 -0.0117486 28.4996 0.0234861 29.4627C0.030011 29.6184 0.274044 29.7651 0.407152 29.9156C0.565056 29.7573 0.786904 29.6236 0.862593 29.4328C0.938282 29.242 0.880863 28.9759 0.880863 28.7436L1.09358 28.6839C1.28019 28.9837 1.47855 29.2784 1.65211 29.5924C1.93529 30.0934 2.26154 29.9091 2.60606 29.7028C2.6049 29.6503 2.5961 29.5983 2.57996 29.5483C2.23414 28.9604 1.7539 28.388 2.47947 27.7429ZM1.17449 27.9194L0.69686 27.4003L1.19145 26.8344C1.34413 27.0031 1.63515 27.1913 1.61557 27.3367C1.59208 27.5469 1.33761 27.726 1.17449 27.9194Z" fill="#FF5887"/>
<path d="M58.376 26.1166C58.2233 26.2723 57.9584 26.4151 57.9402 26.5851C57.8801 27.1199 57.9336 27.665 57.9023 28.2036C57.8801 28.593 57.9519 29.1122 57.3347 29.1122C56.7383 29.1122 56.7565 28.6293 56.7435 28.2192C56.7265 27.6793 56.7696 27.1354 56.7122 26.6007C56.6939 26.4281 56.4433 26.2801 56.2985 26.1205C56.1576 26.2866 55.907 26.4449 55.8966 26.6189C55.8554 27.2877 55.8594 27.9585 55.9083 28.6267C55.9749 29.5106 56.5047 29.9753 57.3438 29.9636C58.1829 29.9519 58.6945 29.4444 58.7545 28.5839C58.7767 28.2607 58.7545 27.935 58.7545 27.6118H58.7649C58.7649 27.2652 58.8067 26.9122 58.7467 26.5734C58.7245 26.4047 58.5065 26.2684 58.376 26.1166Z" fill="#FF5887"/>
<path d="M49.5386 26.5813C49.4538 26.3529 49.1902 26.1919 48.8626 25.8428C48.5729 26.2075 48.3328 26.3996 48.2415 26.6462C47.9257 27.4963 47.6451 28.3594 47.3932 29.229C47.3358 29.4276 47.4428 29.6742 47.4754 29.8988C47.696 29.7806 48.0575 29.7067 48.111 29.5366C48.2558 29.0759 48.5755 29.0175 48.9175 29.1096C49.1615 29.1719 49.4616 29.3523 49.5608 29.5626C49.7239 29.9065 49.9366 30.0156 50.2055 29.8222C50.2812 29.7449 50.3373 29.6508 50.3693 29.5477C50.4013 29.4445 50.4082 29.3353 50.3895 29.229C50.1402 28.3361 49.8583 27.4509 49.5386 26.5813ZM48.5325 28.2803L48.7413 27.4184L48.894 27.3899C48.9866 27.6806 49.0793 27.9727 49.2111 28.3906L48.5325 28.2803Z" fill="#FF5887"/>
<path d="M30.0343 29.1343C29.9208 29.0681 29.7198 29.1602 29.5919 29.1044C29.4005 29.0013 29.2196 28.88 29.0516 28.7423C29.2239 28.6125 29.3922 28.4827 29.5736 28.3529C29.755 28.2232 29.9482 28.1154 30.1348 27.9973C29.9534 27.8364 29.7798 27.6638 29.5854 27.5197C29.4174 27.4069 29.2432 27.3038 29.0634 27.2108C29.2526 27.0888 29.4366 26.9512 29.635 26.8513C29.7015 26.8149 29.8242 26.8798 29.8881 26.8435C30.0582 26.7334 30.2224 26.6147 30.3801 26.4878C30.2248 26.358 30.0826 26.1517 29.9129 26.1283C29.5306 26.0725 29.1299 26.1283 28.7384 26.105C28.3469 26.0816 28.1786 26.2347 28.1956 26.6241C28.2138 27.0758 28.1956 27.5327 28.1956 27.9817C28.1764 28.455 28.1821 28.929 28.2125 29.4017C28.2321 29.5808 28.4252 29.8689 28.5662 29.8858C29.0613 29.9396 29.5608 29.9423 30.0565 29.8936C30.1805 29.8832 30.3945 29.6457 30.3775 29.5418C30.3199 29.3672 30.197 29.2213 30.0343 29.1343Z" fill="#FF5887"/>
<path d="M5.43657 29.1161C5.37132 29.1161 5.2891 29.1394 5.24343 29.1096C5.07508 28.9993 4.91979 28.8708 4.75928 28.7501C4.90122 28.6117 5.05111 28.4817 5.20819 28.3607C5.38437 28.2309 5.71061 28.1673 5.74454 28.0206C5.83459 27.6403 5.5762 27.5196 5.20036 27.5119C5.0542 27.5119 4.91196 27.3029 4.76841 27.19C4.91508 27.0691 5.07132 26.9601 5.2356 26.8642C5.32173 26.8201 5.47441 26.894 5.55271 26.846C5.71696 26.7283 5.87184 26.5981 6.01598 26.4566C5.87243 26.3476 5.74193 26.149 5.58142 26.1322C5.17296 26.0841 4.75667 26.1257 4.34429 26.1075C3.99716 26.0919 3.88233 26.2477 3.89146 26.5709C3.90451 27.0472 3.89146 27.5235 3.89146 27.9986C3.89146 28.1504 3.89146 28.3023 3.89146 28.4528C3.89146 29.9623 3.89146 29.961 5.42352 29.9273C5.73019 29.9195 6.09036 29.9623 6.0995 29.5236C6.10863 29.0849 5.74193 29.1213 5.43657 29.1161Z" fill="#FF5887"/>
<path d="M8.97831 27.7455C8.76821 27.6352 8.5294 27.5664 8.34278 27.4275C8.22795 27.3419 8.18488 27.1576 8.10919 27.0187C8.25274 26.9486 8.3989 26.8201 8.54114 26.824C8.77082 26.8318 8.99789 26.9265 9.27063 26.9953C9.49639 26.2672 9.38155 26.1283 8.58812 26.0868C8.00218 26.0543 7.49976 26.1672 7.3014 26.811C7.11349 27.421 7.33664 27.8922 7.97739 28.2322C8.09092 28.2932 8.23839 28.3192 8.32191 28.4074C8.47018 28.587 8.60703 28.7755 8.73167 28.972C8.49938 29.0253 8.2684 29.1213 8.03742 29.1213C7.80643 29.1213 7.59372 29.0214 7.38492 28.9694C7.06129 29.4886 7.21397 29.7547 7.72161 29.852C7.97115 29.9173 8.22833 29.9491 8.48633 29.9468C9.02138 29.9039 9.45202 29.669 9.58644 29.1031C9.72738 28.5061 9.53554 28.0349 8.97831 27.7455Z" fill="#FF5887"/>
<path d="M68.5588 27.7118C68.367 27.6105 68.1452 27.5482 67.9886 27.4094C67.8791 27.2909 67.8214 27.134 67.828 26.9733C67.828 26.9175 68.0747 26.8188 68.2013 26.8292C68.4477 26.8628 68.6912 26.9153 68.9295 26.9862C69.1565 26.297 69.086 26.1737 68.4427 26.105C68.2692 26.0886 68.0947 26.0847 67.9207 26.0933C67.3987 26.114 67.0503 26.371 66.9446 26.872C66.8389 27.373 66.9224 27.8675 67.4666 28.1388C67.6988 28.2556 67.9559 28.3374 68.1582 28.4918C68.2887 28.5918 68.3383 28.7955 68.4192 28.9526C68.2535 29.0318 68.0825 29.1875 67.9233 29.1758C67.6271 29.1564 67.3387 29.0395 67.0098 28.9513C66.8297 29.7158 67.0646 29.9507 67.9677 29.952C68.5523 29.952 69.0482 29.7742 69.2218 29.146C69.4058 28.4905 69.1891 28.0427 68.5588 27.7118Z" fill="#FF5887"/>
<path d="M21.7176 28.706C21.4488 28.1868 21.4135 27.5846 21.8181 27.1887C22.0908 26.92 22.6207 26.9084 23.037 26.7825L23.298 26.8824C23.2144 26.6384 23.2027 26.2789 23.037 26.1737C22.4484 25.809 21.3874 26.1153 21.0286 26.7344C20.805 27.0947 20.6804 27.5071 20.6674 27.9303C20.6543 28.3535 20.7532 28.7727 20.9542 29.146C21.1209 29.4663 21.3939 29.7195 21.7269 29.8626C22.0598 30.0057 22.4323 30.03 22.7812 29.9312C23.2275 29.8105 23.4611 29.5665 23.217 29.0551C22.6898 29.0655 22.0673 29.3822 21.7176 28.706Z" fill="#FF5887"/>
<path d="M13.0303 26.1321C12.7171 26.0698 12.3778 26.114 12.0568 26.1152C11.7749 26.1152 11.4839 26.0737 11.2124 26.1295C11.0284 26.1659 10.8718 26.3385 10.7035 26.4514C10.8457 26.5955 10.9788 26.8486 11.1341 26.8628C11.5804 26.9044 11.664 27.138 11.6561 27.5118C11.6418 28.1166 11.6561 28.7215 11.6483 29.3289C11.6483 29.6521 11.6483 29.9454 12.1103 29.9272C12.5148 29.9129 12.5435 29.6573 12.5422 29.3522C12.5422 28.7254 12.5527 28.0985 12.5422 27.4729C12.5422 27.09 12.6283 26.8603 13.0838 26.8628C13.2143 26.8628 13.3565 26.6396 13.4923 26.5189C13.3383 26.3839 13.2025 26.1672 13.0303 26.1321Z" fill="#FF5887"/>
<path d="M65.3538 26.1334C64.725 26.0926 64.0942 26.0926 63.4655 26.1334C63.3154 26.1425 63.1758 26.3437 63.0309 26.4579C63.1523 26.5994 63.2723 26.8629 63.3937 26.8629C63.9261 26.8629 63.9953 27.1653 63.9692 27.5845C63.9535 27.8649 63.9692 28.1465 63.9692 28.4269C63.9692 28.6864 63.9588 28.946 63.9692 29.2056C63.9836 29.5301 63.8544 29.9467 64.4312 29.9285C64.9466 29.913 64.8592 29.5392 64.8618 29.2303C64.8618 28.6475 64.8762 28.0621 64.8618 27.4807C64.8514 27.0913 64.9506 26.872 65.4047 26.872C65.5352 26.872 65.6748 26.6435 65.8105 26.5189C65.6565 26.3813 65.5104 26.1451 65.3538 26.1334Z" fill="#FF5887"/>
<path d="M26.717 26.14C25.9223 26.0855 25.1236 26.1153 24.3445 26.1153C24.1775 26.5969 24.2245 26.8863 24.736 26.8798C25.1275 26.8798 25.2006 27.1108 25.1993 27.4288C25.1993 28.0324 25.1993 28.6372 25.1993 29.2459C25.1993 29.5847 25.1823 29.9182 25.6665 29.9273C26.1506 29.9364 26.058 29.573 26.0684 29.2887C26.0802 28.9227 26.0684 28.5554 26.0684 28.1894C26.0684 27.0914 26.0684 27.0914 27.1711 26.7163C27.0054 26.4904 26.8723 26.1517 26.717 26.14Z" fill="#FF5887"/>
<path d="M39.7878 26.1321C39.1384 26.0977 38.4876 26.0977 37.8381 26.1321C37.6972 26.1386 37.4466 26.3411 37.4545 26.4177C37.4819 26.5838 37.6515 26.8564 37.7598 26.8551C38.3849 26.8473 38.3967 27.234 38.3745 27.6779C38.364 27.9142 38.3745 28.1517 38.3745 28.3892C38.3745 28.6916 38.3745 28.9927 38.3745 29.2977C38.3745 29.6027 38.3288 29.9298 38.8038 29.9259C39.2384 29.9259 39.2762 29.6521 39.271 29.3172C39.2619 28.7357 39.2827 28.1491 39.271 27.5715C39.258 27.1523 39.3115 26.8512 39.853 26.8719C39.9705 26.8719 40.0984 26.6214 40.221 26.4826C40.071 26.3593 39.9326 26.1412 39.7878 26.1321Z" fill="#FF5887"/>
<path d="M61.4819 29.0849C61.0473 29.1446 60.9168 28.9343 60.9351 28.5242C60.9612 27.944 60.9142 27.3561 60.9495 26.7824C60.986 26.1737 60.7276 26.0036 60.0673 26.1905C60.0673 27.0017 60.0582 27.7935 60.0673 28.5839C60.0856 30.1414 59.8206 29.9207 61.4545 29.9091C61.6529 29.9091 61.9948 29.7377 62.0196 29.6001C62.0809 29.2692 61.8864 29.0304 61.4819 29.0849Z" fill="#FF5887"/>
<path d="M18.583 26.1802V29.852C19.3569 29.9363 19.413 29.8961 19.4182 29.2342C19.4182 28.4346 19.3869 27.6325 19.4286 26.8343C19.4626 26.2178 19.259 25.9842 18.583 26.1802Z" fill="#FF5887"/>
</g>
<defs>
<clipPath id="clip0_2640_14264">
<rect width="69.2857" height="30" fill="white"/>
</clipPath>
</defs>
</svg>
